<svg width="512" height="512" viewBox="0 0 512 512" fill="none" xmlns="http://www.w3.org/2000/svg" xmlns:xlink="http://www.w3.org/1999/xlink" class=""><rect id="«rmi»" width="512" height="512" x="0" y="0" rx="150" fill="url(#«rmj»)" stroke="#FFFFFF" stroke-width="0" stroke-opacity="100%" paint-order="stroke"></rect><clipPath id="clip"><use xlink:href="#«rmi»"></use></clipPath><defs><radialGradient id="«rmj»" cx="50%" cy="50%" r="100%" fx="50%" fy="50%" gradientUnits="objectBoundingBox"><stop stop-color="#1793d1"></stop><stop offset="0.8" stop-color="#4A00E0"></stop></radialGradient><radialGradient id="«rmk»" cx="0" cy="0" r="1" gradientUnits="userSpaceOnUse" gradientTransform="translate(256) rotate(90) scale(512)"><stop stop-color="white"></stop><stop offset="1" stop-color="white" stop-opacity="0"></stop></radialGradient></defs><svg xmlns="http://www.w3.org/2000/svg" fill="none" viewBox="0 0 16 16" width="352" height="352" x="80" y="80" style="color: rgb(255, 255, 255);" alignment-baseline="middle"><path fill="currentColor" d="M14.026 3.266 8.976.268a1.904 1.904 0 0 0-1.949.001L1.973 3.267A2.014 2.014 0 0 0 1 5.002V11c0 .716.37 1.377.974 1.735l5.05 2.998a1.899 1.899 0 0 0 1.95 0l5.052-2.998c.602-.357.974-1.02.974-1.735V5.001c0-.715-.37-1.377-.974-1.735Zm-3.912 9.364.008.43a.162.162 0 0 1-.073.133l-.256.147c-.04.02-.075-.004-.075-.056l-.004-.424c-.218.09-.44.112-.58.056-.028-.01-.04-.05-.029-.095l.092-.39a.165.165 0 0 1 .046-.08.093.093 0 0 1 .024-.017c.015-.008.03-.01.042-.004.152.05.346.026.534-.067.238-.12.397-.364.395-.605-.003-.22-.12-.31-.409-.312-.367.001-.71-.071-.715-.612-.004-.444.227-.908.593-1.2L9.703 9.1c0-.054.033-.113.074-.134l.248-.158c.04-.02.075.005.075.057l.004.435c.182-.072.34-.092.483-.058.03.008.045.05.032.1l-.096.385a.172.172 0 0 1-.044.078.104.104 0 0 1-.026.019c-.013.007-.025.008-.037.007-.066-.015-.221-.049-.466.074a.587.587 0 0 0-.346.52c.003.198.103.258.454.263.467.009.668.212.674.682.006.46-.24.957-.618 1.26Zm2.648-.725c0 .04-.005.078-.039.097l-1.277.776c-.033.02-.06.003-.06-.037v-.33c0-.04.024-.061.058-.081l1.258-.753c.033-.02.06-.002.06.038v.29Zm.878-7.374L8.861 7.483c-.595.348-1.034.739-1.036 1.457v5.889c0 .43.174.708.44.79a1.604 1.604 0 0 1-.264.025 1.57 1.57 0 0 1-.798-.22l-5.05-2.998c-.494-.293-.801-.84-.801-1.428V5c0-.588.307-1.135.8-1.428L7.205.574a1.57 1.57 0 0 1 .798-.22c.28 0 .556.077.798.22l5.052 2.999c.416.247.697.674.776 1.155-.17-.358-.547-.454-.988-.197Z"></path></svg></svg>