<svg width="512" height="512" viewBox="0 0 512 512" fill="none" xmlns="http://www.w3.org/2000/svg" xmlns:xlink="http://www.w3.org/1999/xlink" class=""><rect id="«rmi»" width="512" height="512" x="0" y="0" rx="150" fill="url(#«rmj»)" stroke="#FFFFFF" stroke-width="0" stroke-opacity="100%" paint-order="stroke"></rect><clipPath id="clip"><use xlink:href="#«rmi»"></use></clipPath><defs><radialGradient id="«rmj»" cx="50%" cy="50%" r="100%" fx="50%" fy="50%" gradientUnits="objectBoundingBox"><stop stop-color="#1793d1"></stop><stop offset="0.8" stop-color="#4A00E0"></stop></radialGradient><radialGradient id="«rmk»" cx="0" cy="0" r="1" gradientUnits="userSpaceOnUse" gradientTransform="translate(256) rotate(90) scale(512)"><stop stop-color="white"></stop><stop offset="1" stop-color="white" stop-opacity="0"></stop></radialGradient></defs><svg xmlns="http://www.w3.org/2000/svg" fill="none" viewBox="0 0 16 16" width="352" height="352" x="80" y="80" style="color: rgb(255, 255, 255);" alignment-baseline="middle"><path fill="currentColor" d="M6.202 7.755h3.574c.995 0 1.779-.842 1.779-1.841V2.506c0-.97-.813-1.698-1.784-1.86A11.114 11.114 0 0 0 7.909.5a9.985 9.985 0 0 0-1.692.146c-1.515.267-1.772.828-1.772 1.86v1.326H8v.49H3.07c-1.04 0-1.951.627-2.236 1.816-.329 1.363-.343 2.197 0 3.62.254 1.06.862 1.797 1.902 1.797h1.219v-1.6c0-1.18 1.033-2.2 2.247-2.2ZM5.977 2.96a.675.675 0 0 1-.672-.68c0-.377.3-.684.672-.684a.68.68 0 0 1 .671.684c0 .376-.302.68-.671.68Zm9.167 3.177c-.257-1.035-.748-1.815-1.79-1.815h-1.309v1.59c0 1.233-1.078 2.21-2.269 2.21H6.202c-.98 0-1.757.898-1.757 1.878v3.408c0 .97.827 1.54 1.773 1.818 1.133.333 2.206.393 3.561 0 .9-.26 1.776-.786 1.776-1.818v-1.364H8v-.49h5.354c1.04 0 1.428-.708 1.79-1.797.373-1.121.357-2.182 0-3.62Zm-5.143 6.816c.371 0 .672.304.672.68 0 .377-.3.684-.672.684a.679.679 0 0 1-.671-.684c0-.376.302-.68.671-.68Z"></path></svg></svg>